<mxfile host="app.diagrams.net"><diagram name="Modelo Lógico" id="diagram1"><mxGraphModel dx="1294" dy="721" grid="1" gridSize="10" guides="1" tooltips="1" connect="1" arrows="1" fold="1" page="1" pageScale="1" pageWidth="827" pageHeight="1169"><root><mxCell id="0" /><mxCell id="1" parent="0" /><mxCell id="2" value="Usuario&lt;br&gt;usu_id&lt;br&gt;usu_name&lt;br&gt;usu_lastName&lt;br&gt;usu_email&lt;br&gt;usu_password&lt;br&gt;usu_photo_url&lt;br&gt;usu_timestamp" style="shape=swimlane;childLayout=stackLayout;startSize=20;" vertex="1" parent="1"><mxGeometry x="40" y="40" width="160" height="80" as="geometry" /></mxCell><mxCell id="3" value="Chat&lt;br&gt;chat_id&lt;br&gt;chat_name&lt;br&gt;chat_start_date" style="shape=swimlane;childLayout=stackLayout;startSize=20;" vertex="1" parent="1"><mxGeometry x="320" y="40" width="160" height="80" as="geometry" /></mxCell><mxCell id="4" value="Usuario_Chat&lt;br&gt;usu_id&lt;br&gt;chat_id" style="shape=swimlane;childLayout=stackLayout;startSize=20;" vertex="1" parent="1"><mxGeometry x="180" y="180" width="160" height="80" as="geometry" /></mxCell><mxCell id="5" value="Message&lt;br&gt;msg_id&lt;br&gt;msg_content&lt;br&gt;msg_timestamp&lt;br&gt;msg_author&lt;br&gt;chat_id" style="shape=swimlane;childLayout=stackLayout;startSize=20;" vertex="1" parent="1"><mxGeometry x="560" y="40" width="160" height="80" as="geometry" /></mxCell></root></mxGraphModel></diagram></mxfile>